<?xml version="1.0" encoding="UTF-8"?>
<svg xmlns="http://www.w3.org/2000/svg" viewBox="0 0 300 88" width="300" height="88">
  <!-- Icon background -->
  <rect x="8" y="8" width="72" height="72" rx="15" fill="#1a0f08"/>

  <!-- Open book body -->
  <path d="M20 30C28 27 36 27 44 32C52 27 60 27 68 30L68 58C60 55 52 55 44 60C36 55 28 55 20 58Z" fill="#d98c3e"/>
  <!-- Page-line highlights -->
  <path d="M26 38L40 38.5M26 43L40 43.5M48 38.5L62 38M48 43.5L62 43" stroke="#fbe2c2" stroke-width="1.1" stroke-linecap="round" fill="none"/>
  <!-- Spine -->
  <path d="M44 32L44 60" stroke="#1a0f08" stroke-width="1.1" stroke-linecap="round" fill="none" opacity="0.55"/>

  <!-- Wordmark — "Easy" -->
  <text
    x="96" y="38"
    font-family="Georgia, 'Times New Roman', serif"
    font-size="24"
    font-weight="700"
    fill="#2e1a0a"
    letter-spacing="-0.4"
  >Easy</text>

  <!-- Wordmark — "Story" -->
  <text
    x="96" y="65"
    font-family="Georgia, 'Times New Roman', serif"
    font-size="24"
    font-weight="400"
    fill="#5a3618"
    letter-spacing="-0.3"
  >Story</text>

  <!-- Decorative rule between the two words -->
  <line x1="96" y1="42" x2="218" y2="42" stroke="#d98c3e" stroke-width="0.9" opacity="0.45"/>
</svg>
